%FSLAX25Y25*%
%MOIN*%
G70*
G01*
G75*
G04 Layer_Color=8388736*
%ADD10P,0.05568X4X345.0*%
%ADD11R,0.03937X0.03937*%
%ADD12R,0.02362X0.04528*%
%ADD13P,0.05568X4X285.0*%
%ADD14R,0.04724X0.07677*%
%ADD15R,0.03740X0.03937*%
G04:AMPARAMS|DCode=16|XSize=74.8mil|YSize=74.8mil|CornerRadius=18.7mil|HoleSize=0mil|Usage=FLASHONLY|Rotation=270.000|XOffset=0mil|YOffset=0mil|HoleType=Round|Shape=RoundedRectangle|*
%AMROUNDEDRECTD16*
21,1,0.07480,0.03740,0,0,270.0*
21,1,0.03740,0.07480,0,0,270.0*
1,1,0.03740,-0.01870,-0.01870*
1,1,0.03740,-0.01870,0.01870*
1,1,0.03740,0.01870,0.01870*
1,1,0.03740,0.01870,-0.01870*
%
%ADD16ROUNDEDRECTD16*%
G04:AMPARAMS|DCode=17|XSize=15.75mil|YSize=53.15mil|CornerRadius=3.94mil|HoleSize=0mil|Usage=FLASHONLY|Rotation=270.000|XOffset=0mil|YOffset=0mil|HoleType=Round|Shape=RoundedRectangle|*
%AMROUNDEDRECTD17*
21,1,0.01575,0.04528,0,0,270.0*
21,1,0.00787,0.05315,0,0,270.0*
1,1,0.00787,-0.02264,-0.00394*
1,1,0.00787,-0.02264,0.00394*
1,1,0.00787,0.02264,0.00394*
1,1,0.00787,0.02264,-0.00394*
%
%ADD17ROUNDEDRECTD17*%
G04:AMPARAMS|DCode=18|XSize=70.87mil|YSize=74.8mil|CornerRadius=17.72mil|HoleSize=0mil|Usage=FLASHONLY|Rotation=270.000|XOffset=0mil|YOffset=0mil|HoleType=Round|Shape=RoundedRectangle|*
%AMROUNDEDRECTD18*
21,1,0.07087,0.03937,0,0,270.0*
21,1,0.03543,0.07480,0,0,270.0*
1,1,0.03543,-0.01969,-0.01772*
1,1,0.03543,-0.01969,0.01772*
1,1,0.03543,0.01969,0.01772*
1,1,0.03543,0.01969,-0.01772*
%
%ADD18ROUNDEDRECTD18*%
G04:AMPARAMS|DCode=19|XSize=82.68mil|YSize=62.99mil|CornerRadius=15.75mil|HoleSize=0mil|Usage=FLASHONLY|Rotation=270.000|XOffset=0mil|YOffset=0mil|HoleType=Round|Shape=RoundedRectangle|*
%AMROUNDEDRECTD19*
21,1,0.08268,0.03150,0,0,270.0*
21,1,0.05118,0.06299,0,0,270.0*
1,1,0.03150,-0.01575,-0.02559*
1,1,0.03150,-0.01575,0.02559*
1,1,0.03150,0.01575,0.02559*
1,1,0.03150,0.01575,-0.02559*
%
%ADD19ROUNDEDRECTD19*%
%ADD20R,0.03937X0.03937*%
G04:AMPARAMS|DCode=21|XSize=83mil|YSize=55mil|CornerRadius=13.75mil|HoleSize=0mil|Usage=FLASHONLY|Rotation=180.000|XOffset=0mil|YOffset=0mil|HoleType=Round|Shape=RoundedRectangle|*
%AMROUNDEDRECTD21*
21,1,0.08300,0.02750,0,0,180.0*
21,1,0.05550,0.05500,0,0,180.0*
1,1,0.02750,-0.02775,0.01375*
1,1,0.02750,0.02775,0.01375*
1,1,0.02750,0.02775,-0.01375*
1,1,0.02750,-0.02775,-0.01375*
%
%ADD21ROUNDEDRECTD21*%
%ADD22R,0.04331X0.02559*%
%ADD23R,0.02559X0.04331*%
%ADD24C,0.02000*%
%ADD25C,0.01500*%
%ADD26C,0.01000*%
%ADD27C,0.06299*%
%ADD28R,0.05906X0.05906*%
%ADD29C,0.05906*%
%ADD30C,0.05000*%
G04:AMPARAMS|DCode=31|XSize=78.74mil|YSize=39.37mil|CornerRadius=7.87mil|HoleSize=0mil|Usage=FLASHONLY|Rotation=0.000|XOffset=0mil|YOffset=0mil|HoleType=Round|Shape=RoundedRectangle|*
%AMROUNDEDRECTD31*
21,1,0.07874,0.02362,0,0,0.0*
21,1,0.06299,0.03937,0,0,0.0*
1,1,0.01575,0.03150,-0.01181*
1,1,0.01575,-0.03150,-0.01181*
1,1,0.01575,-0.03150,0.01181*
1,1,0.01575,0.03150,0.01181*
%
%ADD31ROUNDEDRECTD31*%
G04:AMPARAMS|DCode=32|XSize=39.37mil|YSize=78.74mil|CornerRadius=7.87mil|HoleSize=0mil|Usage=FLASHONLY|Rotation=0.000|XOffset=0mil|YOffset=0mil|HoleType=Round|Shape=RoundedRectangle|*
%AMROUNDEDRECTD32*
21,1,0.03937,0.06299,0,0,0.0*
21,1,0.02362,0.07874,0,0,0.0*
1,1,0.01575,0.01181,-0.03150*
1,1,0.01575,-0.01181,-0.03150*
1,1,0.01575,-0.01181,0.03150*
1,1,0.01575,0.01181,0.03150*
%
%ADD32ROUNDEDRECTD32*%
%ADD33O,0.02165X0.06890*%
%ADD34O,0.06890X0.02165*%
%ADD35R,0.07874X0.08268*%
%ADD36R,0.10236X0.10630*%
%ADD37R,0.10630X0.08268*%
%ADD38R,0.08661X0.08268*%
%ADD39R,0.13780X0.03937*%
%ADD40R,0.13386X0.05906*%
%ADD41R,0.03937X0.03740*%
%ADD42C,0.00984*%
%ADD43C,0.00394*%
%ADD44C,0.00787*%
%ADD45C,0.00100*%
%ADD46P,0.06699X4X345.0*%
%ADD47R,0.04737X0.04737*%
%ADD48R,0.03162X0.05328*%
%ADD49P,0.06699X4X285.0*%
%ADD50R,0.05524X0.08477*%
%ADD51R,0.04540X0.04737*%
G04:AMPARAMS|DCode=52|XSize=82.8mil|YSize=82.8mil|CornerRadius=22.7mil|HoleSize=0mil|Usage=FLASHONLY|Rotation=270.000|XOffset=0mil|YOffset=0mil|HoleType=Round|Shape=RoundedRectangle|*
%AMROUNDEDRECTD52*
21,1,0.08280,0.03740,0,0,270.0*
21,1,0.03740,0.08280,0,0,270.0*
1,1,0.04540,-0.01870,-0.01870*
1,1,0.04540,-0.01870,0.01870*
1,1,0.04540,0.01870,0.01870*
1,1,0.04540,0.01870,-0.01870*
%
%ADD52ROUNDEDRECTD52*%
G04:AMPARAMS|DCode=53|XSize=23.75mil|YSize=61.15mil|CornerRadius=7.94mil|HoleSize=0mil|Usage=FLASHONLY|Rotation=270.000|XOffset=0mil|YOffset=0mil|HoleType=Round|Shape=RoundedRectangle|*
%AMROUNDEDRECTD53*
21,1,0.02375,0.04528,0,0,270.0*
21,1,0.00787,0.06115,0,0,270.0*
1,1,0.01587,-0.02264,-0.00394*
1,1,0.01587,-0.02264,0.00394*
1,1,0.01587,0.02264,0.00394*
1,1,0.01587,0.02264,-0.00394*
%
%ADD53ROUNDEDRECTD53*%
G04:AMPARAMS|DCode=54|XSize=78.87mil|YSize=82.8mil|CornerRadius=21.72mil|HoleSize=0mil|Usage=FLASHONLY|Rotation=270.000|XOffset=0mil|YOffset=0mil|HoleType=Round|Shape=RoundedRectangle|*
%AMROUNDEDRECTD54*
21,1,0.07887,0.03937,0,0,270.0*
21,1,0.03543,0.08280,0,0,270.0*
1,1,0.04343,-0.01969,-0.01772*
1,1,0.04343,-0.01969,0.01772*
1,1,0.04343,0.01969,0.01772*
1,1,0.04343,0.01969,-0.01772*
%
%ADD54ROUNDEDRECTD54*%
G04:AMPARAMS|DCode=55|XSize=90.68mil|YSize=70.99mil|CornerRadius=19.75mil|HoleSize=0mil|Usage=FLASHONLY|Rotation=270.000|XOffset=0mil|YOffset=0mil|HoleType=Round|Shape=RoundedRectangle|*
%AMROUNDEDRECTD55*
21,1,0.09068,0.03150,0,0,270.0*
21,1,0.05118,0.07099,0,0,270.0*
1,1,0.03950,-0.01575,-0.02559*
1,1,0.03950,-0.01575,0.02559*
1,1,0.03950,0.01575,0.02559*
1,1,0.03950,0.01575,-0.02559*
%
%ADD55ROUNDEDRECTD55*%
%ADD56R,0.04737X0.04737*%
G04:AMPARAMS|DCode=57|XSize=91mil|YSize=63mil|CornerRadius=17.75mil|HoleSize=0mil|Usage=FLASHONLY|Rotation=180.000|XOffset=0mil|YOffset=0mil|HoleType=Round|Shape=RoundedRectangle|*
%AMROUNDEDRECTD57*
21,1,0.09100,0.02750,0,0,180.0*
21,1,0.05550,0.06300,0,0,180.0*
1,1,0.03550,-0.02775,0.01375*
1,1,0.03550,0.02775,0.01375*
1,1,0.03550,0.02775,-0.01375*
1,1,0.03550,-0.02775,-0.01375*
%
%ADD57ROUNDEDRECTD57*%
%ADD58R,0.05131X0.03359*%
%ADD59R,0.03359X0.05131*%
%ADD60C,0.07099*%
%ADD61R,0.06706X0.06706*%
%ADD62C,0.06706*%
%ADD63C,0.05800*%
D46*
X426687Y282006D02*
D03*
X432313Y285254D02*
D03*
X520422Y336124D02*
D03*
X514796Y332876D02*
D03*
D47*
X473636Y363248D02*
D03*
Y356752D02*
D03*
X473600Y347748D02*
D03*
Y341252D02*
D03*
X481600Y347748D02*
D03*
Y341252D02*
D03*
X465600Y347748D02*
D03*
Y341252D02*
D03*
X429000Y260248D02*
D03*
Y253752D02*
D03*
X445500Y305752D02*
D03*
Y312248D02*
D03*
X481500Y278752D02*
D03*
Y285248D02*
D03*
X473500Y278752D02*
D03*
Y285248D02*
D03*
X465500Y278752D02*
D03*
Y285248D02*
D03*
X426400Y273748D02*
D03*
Y267252D02*
D03*
X432800D02*
D03*
Y273748D02*
D03*
X533400Y290252D02*
D03*
Y296748D02*
D03*
X540100D02*
D03*
Y290252D02*
D03*
X532800Y269652D02*
D03*
Y276148D02*
D03*
X539700D02*
D03*
Y269652D02*
D03*
X473000Y254752D02*
D03*
Y261248D02*
D03*
X403000Y237752D02*
D03*
Y244248D02*
D03*
X408000Y272752D02*
D03*
Y279248D02*
D03*
D48*
X488760Y330671D02*
D03*
X496240D02*
D03*
X492500Y339529D02*
D03*
D49*
X426850Y336124D02*
D03*
X432476Y332876D02*
D03*
X520813Y281876D02*
D03*
X515187Y285124D02*
D03*
D50*
X457500Y261323D02*
D03*
Y251677D02*
D03*
X430000Y240823D02*
D03*
Y231177D02*
D03*
D51*
X504000Y305850D02*
D03*
Y312150D02*
D03*
X424900Y311050D02*
D03*
Y317350D02*
D03*
X503800Y324750D02*
D03*
Y318450D02*
D03*
X422100Y234450D02*
D03*
Y228150D02*
D03*
X416000Y272850D02*
D03*
Y279150D02*
D03*
D52*
X402468Y298276D02*
D03*
Y307724D02*
D03*
D53*
X413000Y297882D02*
D03*
Y300441D02*
D03*
Y303000D02*
D03*
Y305559D02*
D03*
Y308118D02*
D03*
D54*
X402468Y288039D02*
D03*
X402488Y317961D02*
D03*
D55*
X412508Y315205D02*
D03*
Y290795D02*
D03*
D56*
X464152Y325600D02*
D03*
X470648D02*
D03*
X497852Y272000D02*
D03*
X504348D02*
D03*
Y264900D02*
D03*
X497852D02*
D03*
X408752Y247900D02*
D03*
X415248D02*
D03*
D57*
X491500Y300000D02*
D03*
Y317700D02*
D03*
X455700Y300000D02*
D03*
Y317700D02*
D03*
D58*
X446724Y260740D02*
D03*
Y253260D02*
D03*
X437276D02*
D03*
Y257000D02*
D03*
Y260740D02*
D03*
D59*
X408260Y266224D02*
D03*
X415740D02*
D03*
Y256776D02*
D03*
X412000D02*
D03*
X408260D02*
D03*
D60*
X528559Y370000D02*
D03*
X501000D02*
D03*
X417941Y370500D02*
D03*
X445500D02*
D03*
D61*
X458000Y230500D02*
D03*
D62*
Y240500D02*
D03*
X468000Y230500D02*
D03*
Y240500D02*
D03*
X478000Y230500D02*
D03*
Y240500D02*
D03*
D63*
X431000Y295800D02*
D03*
X469100Y303300D02*
D03*
X440100Y237000D02*
D03*
X451300Y268700D02*
D03*
X431300Y309900D02*
D03*
X464600Y273250D02*
D03*
X444700Y273000D02*
D03*
X465400Y335300D02*
D03*
X473400Y334700D02*
D03*
X453000Y310000D02*
D03*
X441000Y318900D02*
D03*
X520800Y269700D02*
D03*
X522900Y290700D02*
D03*
X477300Y272200D02*
D03*
X512900Y264800D02*
D03*
X439200Y308000D02*
D03*
X471000Y310400D02*
D03*
X496100Y324000D02*
D03*
X421700Y239200D02*
D03*
X450400Y292000D02*
D03*
X444000Y292100D02*
D03*
X465900Y263500D02*
D03*
X436100Y290800D02*
D03*
X476585Y329400D02*
D03*
X476100Y317400D02*
D03*
X467800D02*
D03*
M02*
