M48
;Layer_Color=9474304
;FILE_FORMAT=2:5
INCH,LZ
;TYPE=PLATED
T1F00S00C0.02800
T2F00S00C0.03543
T3F00S00C0.06299
%
T01
X04773Y02722
X04691Y03033
X0471Y03104
X05229Y02907
X05208Y02697
X05129Y02648
X04659Y02635
X04646Y027325
X04513Y02687
X04447Y0273
X0444Y02921
X04504Y0292
X04361Y02908
X0431Y02958
X04313Y03099
X04392Y0308
X0453Y031
X04401Y0237
X04217Y02392
X0441Y03189
X04678Y03174
X04654Y03353
X04734Y03347
X0476585Y03294
X04761Y03174
X04961Y0324
T02
X0478Y02305
Y02405
X0468
X0458
Y02305
X0468
T03
X0417941Y03705
X04455
X0501Y037
X0528559
M30
